{
    "asset" : {
        "generator" : "Khronos glTF Blender I/O v3.2.43",
        "version" : "2.0"
    },
    "extensionsUsed" : [
        "KHR_materials_transmission"
    ],
    "scene" : 0,
    "scenes" : [
        {
            "name" : "Scene",
            "nodes" : [
                3
            ]
        }
    ],
    "nodes" : [
        {
            "mesh" : 0,
            "name" : "Mesh_0"
        },
        {
            "mesh" : 1,
            "name" : "Mesh_1",
            "translation" : [
                0,
                0,
                -7.3651814460754395
            ]
        },
        {
            "children" : [
                0,
                1
            ],
            "name" : "Node_2"
        },
        {
            "children" : [
                2
            ],
            "name" : "Node_3",
            "translation" : [
                0.087615966796875,
                0,
                0
            ]
        }
    ],
    "materials" : [
        {
            "doubleSided" : true,
            "extensions" : {
                "KHR_materials_transmission" : {
                    "transmissionFactor" : 1
                }
            },
            "name" : "Material.003",
            "pbrMetallicRoughness" : {
                "baseColorFactor" : [
                    0.012286053970456123,
                    0.4851497411727905,
                    0.08865569531917572,
                    1
                ],
                "metallicFactor" : 0,
                "roughnessFactor" : 0.02331605553627014
            }
        },
        {
            "doubleSided" : true,
            "extensions" : {
                "KHR_materials_transmission" : {
                    "transmissionFactor" : 1
                }
            },
            "name" : "Material.002",
            "pbrMetallicRoughness" : {
                "baseColorFactor" : [
                    0.012286053970456123,
                    0.4851497411727905,
                    0.08865569531917572,
                    1
                ],
                "metallicFactor" : 0,
                "roughnessFactor" : 0
            }
        }
    ],
    "meshes" : [
        {
            "name" : "Mesh_0",
            "primitives" : [
                {
                    "attributes" : {
                        "POSITION" : 0,
                        "NORMAL" : 1
                    },
                    "indices" : 2,
                    "material" : 0
                }
            ]
        },
        {
            "name" : "Mesh_1",
            "primitives" : [
                {
                    "attributes" : {
                        "POSITION" : 3,
                        "NORMAL" : 4
                    },
                    "indices" : 5,
                    "material" : 1
                }
            ]
        }
    ],
    "accessors" : [
        {
            "bufferView" : 0,
            "componentType" : 5126,
            "count" : 1478,
            "max" : [
                72.75352478027344,
                70.80960083007812,
                3.33270263671875
            ],
            "min" : [
                -69.99447631835938,
                -71.68440246582031,
                -7.398797035217285
            ],
            "type" : "VEC3"
        },
        {
            "bufferView" : 1,
            "componentType" : 5126,
            "count" : 1478,
            "type" : "VEC3"
        },
        {
            "bufferView" : 2,
            "componentType" : 5123,
            "count" : 1848,
            "type" : "SCALAR"
        },
        {
            "bufferView" : 3,
            "componentType" : 5126,
            "count" : 797,
            "max" : [
                71.93910217285156,
                70.62544250488281,
                4.673004150390625e-05
            ],
            "min" : [
                -70.80889892578125,
                -71.86856079101562,
                4.673004150390625e-05
            ],
            "type" : "VEC3"
        },
        {
            "bufferView" : 4,
            "componentType" : 5126,
            "count" : 797,
            "type" : "VEC3"
        },
        {
            "bufferView" : 5,
            "componentType" : 5123,
            "count" : 930,
            "type" : "SCALAR"
        }
    ],
    "bufferViews" : [
        {
            "buffer" : 0,
            "byteLength" : 17736,
            "byteOffset" : 0
        },
        {
            "buffer" : 0,
            "byteLength" : 17736,
            "byteOffset" : 17736
        },
        {
            "buffer" : 0,
            "byteLength" : 3696,
            "byteOffset" : 35472
        },
        {
            "buffer" : 0,
            "byteLength" : 9564,
            "byteOffset" : 39168
        },
        {
            "buffer" : 0,
            "byteLength" : 9564,
            "byteOffset" : 48732
        },
        {
            "buffer" : 0,
            "byteLength" : 1860,
            "byteOffset" : 58296
        }
    ],
    "buffers" : [
        {
            "byteLength" : 60156,
            "uri" : "data:application/octet-stream;base64,"
        }
    ]
}
