{
    "asset" : {
        "generator" : "Khronos glTF Blender I/O v3.2.43",
        "version" : "2.0"
    },
    "scene" : 0,
    "scenes" : [
        {
            "name" : "Scene",
            "nodes" : [
                3
            ]
        }
    ],
    "nodes" : [
        {
            "mesh" : 0,
            "name" : "Mesh_0"
        },
        {
            "mesh" : 1,
            "name" : "Mesh_1"
        },
        {
            "children" : [
                0,
                1
            ],
            "name" : "Node_2"
        },
        {
            "children" : [
                2
            ],
            "name" : "Node_3"
        }
    ],
    "materials" : [
        {
            "doubleSided" : true,
            "name" : "Material.003",
            "pbrMetallicRoughness" : {}
        },
        {
            "doubleSided" : true,
            "name" : "Material.002",
            "pbrMetallicRoughness" : {}
        }
    ],
    "meshes" : [
        {
            "name" : "Mesh_0",
            "primitives" : [
                {
                    "attributes" : {
                        "POSITION" : 0,
                        "NORMAL" : 1
                    },
                    "indices" : 2,
                    "material" : 0
                }
            ]
        },
        {
            "name" : "Mesh_1",
            "primitives" : [
                {
                    "attributes" : {
                        "POSITION" : 3,
                        "NORMAL" : 4
                    },
                    "indices" : 5,
                    "material" : 1
                }
            ]
        }
    ],
    "accessors" : [
        {
            "bufferView" : 0,
            "componentType" : 5126,
            "count" : 1766,
            "max" : [
                142.7480010986328,
                142.49400329589844,
                21.46299934387207
            ],
            "min" : [
                0,
                0,
                10.731499671936035
            ],
            "type" : "VEC3"
        },
        {
            "bufferView" : 1,
            "componentType" : 5126,
            "count" : 1766,
            "type" : "VEC3"
        },
        {
            "bufferView" : 2,
            "componentType" : 5123,
            "count" : 1848,
            "type" : "SCALAR"
        },
        {
            "bufferView" : 3,
            "componentType" : 5126,
            "count" : 920,
            "max" : [
                142.7480010986328,
                142.49400329589844,
                10.731499671936035
            ],
            "min" : [
                0,
                0,
                10.731499671936035
            ],
            "type" : "VEC3"
        },
        {
            "bufferView" : 4,
            "componentType" : 5126,
            "count" : 920,
            "type" : "VEC3"
        },
        {
            "bufferView" : 5,
            "componentType" : 5123,
            "count" : 930,
            "type" : "SCALAR"
        }
    ],
    "bufferViews" : [
        {
            "buffer" : 0,
            "byteLength" : 21192,
            "byteOffset" : 0
        },
        {
            "buffer" : 0,
            "byteLength" : 21192,
            "byteOffset" : 21192
        },
        {
            "buffer" : 0,
            "byteLength" : 3696,
            "byteOffset" : 42384
        },
        {
            "buffer" : 0,
            "byteLength" : 11040,
            "byteOffset" : 46080
        },
        {
            "buffer" : 0,
            "byteLength" : 11040,
            "byteOffset" : 57120
        },
        {
            "buffer" : 0,
            "byteLength" : 1860,
            "byteOffset" : 68160
        }
    ],
    "buffers" : [
        {
            "byteLength" : 70020,
            "uri" : "data:application/octet-stream;base64,"
        }
    ]
}
