{
    "asset" : {
        "generator" : "Khronos glTF Blender I/O v3.2.43",
        "version" : "2.0"
    },
    "extensionsUsed" : [
        "KHR_materials_clearcoat"
    ],
    "scene" : 0,
    "scenes" : [
        {
            "name" : "Scene",
            "nodes" : [
                2
            ]
        }
    ],
    "nodes" : [
        {
            "mesh" : 0,
            "name" : "Mesh_1"
        },
        {
            "children" : [
                0
            ],
            "name" : "Node_2"
        },
        {
            "children" : [
                1
            ],
            "name" : "Node_3",
            "scale" : [
                0.5,
                0.5,
                0.5
            ]
        }
    ],
    "materials" : [
        {
            "doubleSided" : true,
            "extensions" : {
                "KHR_materials_clearcoat" : {
                    "clearcoatFactor" : 0.984455943107605,
                    "clearcoatRoughnessFactor" : 0.029999999329447746
                }
            },
            "name" : "Material.001",
            "pbrMetallicRoughness" : {
                "baseColorFactor" : [
                    0.012286053970456123,
                    0.4851497411727905,
                    0.08865569531917572,
                    1
                ],
                "metallicFactor" : 0,
                "roughnessFactor" : 0
            }
        }
    ],
    "meshes" : [
        {
            "name" : "Mesh_1",
            "primitives" : [
                {
                    "attributes" : {
                        "POSITION" : 0,
                        "NORMAL" : 1
                    },
                    "indices" : 2,
                    "material" : 0
                }
            ]
        }
    ],
    "accessors" : [
        {
            "bufferView" : 0,
            "componentType" : 5126,
            "count" : 2275,
            "max" : [
                72.46818542480469,
                70.74510192871094,
                5.924614906311035
            ],
            "min" : [
                -70.27981567382812,
                -71.7489013671875,
                -4.806884765625
            ],
            "type" : "VEC3"
        },
        {
            "bufferView" : 1,
            "componentType" : 5126,
            "count" : 2275,
            "type" : "VEC3"
        },
        {
            "bufferView" : 2,
            "componentType" : 5123,
            "count" : 2778,
            "type" : "SCALAR"
        }
    ],
    "bufferViews" : [
        {
            "buffer" : 0,
            "byteLength" : 27300,
            "byteOffset" : 0
        },
        {
            "buffer" : 0,
            "byteLength" : 27300,
            "byteOffset" : 27300
        },
        {
            "buffer" : 0,
            "byteLength" : 5556,
            "byteOffset" : 54600
        }
    ],
    "buffers" : [
        {
            "byteLength" : 60156,
            "uri" : "data:application/octet-stream;base64,"
        }
    ]
}
