{
    "asset" : {
        "generator" : "Khronos glTF Blender I/O v3.2.43",
        "version" : "2.0"
    },
    "extensionsUsed" : [
        "KHR_materials_clearcoat"
    ],
    "scene" : 0,
    "scenes" : [
        {
            "name" : "Scene",
            "nodes" : [
                3
            ]
        }
    ],
    "nodes" : [
        {
            "mesh" : 0,
            "name" : "Mesh_0"
        },
        {
            "mesh" : 1,
            "name" : "Mesh_1"
        },
        {
            "children" : [
                0,
                1
            ],
            "name" : "Node_2"
        },
        {
            "children" : [
                2
            ],
            "name" : "Node_3",
            "translation" : [
                -71.65139770507812,
                0,
                0
            ]
        }
    ],
    "materials" : [
        {
            "alphaCutoff" : 0.5,
            "alphaMode" : "MASK",
            "doubleSided" : true,
            "emissiveFactor" : [
                0.012286053970456123,
                0.4851497411727905,
                0.08865569531917572
            ],
            "extensions" : {
                "KHR_materials_clearcoat" : {
                    "clearcoatFactor" : 1,
                    "clearcoatRoughnessFactor" : 0
                }
            },
            "name" : "Material.003",
            "pbrMetallicRoughness" : {
                "baseColorFactor" : [
                    0.012286053970456123,
                    0.4851497411727905,
                    0.08865569531917572,
                    0.7357512712478638
                ],
                "metallicFactor" : 0.9948186278343201,
                "roughnessFactor" : 0
            }
        },
        {
            "alphaCutoff" : 0.5,
            "alphaMode" : "MASK",
            "doubleSided" : true,
            "emissiveFactor" : [
                0.012286053970456123,
                0.4851497411727905,
                0.08865569531917572
            ],
            "extensions" : {
                "KHR_materials_clearcoat" : {
                    "clearcoatFactor" : 1,
                    "clearcoatRoughnessFactor" : 0
                }
            },
            "name" : "Material.002",
            "pbrMetallicRoughness" : {
                "baseColorFactor" : [
                    0.012286053970456123,
                    0.4851497411727905,
                    0.08865569531917572,
                    0.782383382320404
                ],
                "roughnessFactor" : 0
            }
        }
    ],
    "meshes" : [
        {
            "name" : "Mesh_0",
            "primitives" : [
                {
                    "attributes" : {
                        "POSITION" : 0,
                        "NORMAL" : 1
                    },
                    "indices" : 2,
                    "material" : 0
                }
            ]
        },
        {
            "name" : "Mesh_1",
            "primitives" : [
                {
                    "attributes" : {
                        "POSITION" : 3,
                        "NORMAL" : 4
                    },
                    "indices" : 5,
                    "material" : 1
                }
            ]
        }
    ],
    "accessors" : [
        {
            "bufferView" : 0,
            "componentType" : 5126,
            "count" : 1478,
            "max" : [
                142.7480010986328,
                142.49400329589844,
                21.46299934387207
            ],
            "min" : [
                0,
                0,
                10.731499671936035
            ],
            "type" : "VEC3"
        },
        {
            "bufferView" : 1,
            "componentType" : 5126,
            "count" : 1478,
            "type" : "VEC3"
        },
        {
            "bufferView" : 2,
            "componentType" : 5123,
            "count" : 1848,
            "type" : "SCALAR"
        },
        {
            "bufferView" : 3,
            "componentType" : 5126,
            "count" : 797,
            "max" : [
                142.7480010986328,
                142.49400329589844,
                10.731499671936035
            ],
            "min" : [
                0,
                0,
                10.731499671936035
            ],
            "type" : "VEC3"
        },
        {
            "bufferView" : 4,
            "componentType" : 5126,
            "count" : 797,
            "type" : "VEC3"
        },
        {
            "bufferView" : 5,
            "componentType" : 5123,
            "count" : 930,
            "type" : "SCALAR"
        }
    ],
    "bufferViews" : [
        {
            "buffer" : 0,
            "byteLength" : 17736,
            "byteOffset" : 0
        },
        {
            "buffer" : 0,
            "byteLength" : 17736,
            "byteOffset" : 17736
        },
        {
            "buffer" : 0,
            "byteLength" : 3696,
            "byteOffset" : 35472
        },
        {
            "buffer" : 0,
            "byteLength" : 9564,
            "byteOffset" : 39168
        },
        {
            "buffer" : 0,
            "byteLength" : 9564,
            "byteOffset" : 48732
        },
        {
            "buffer" : 0,
            "byteLength" : 1860,
            "byteOffset" : 58296
        }
    ],
    "buffers" : [
        {
            "byteLength" : 60156,
            "uri" : "data:application/octet-stream;base64,"
        }
    ]
}
