{"accessors" : [{"bufferView" : 0, "byteOffset" : 0, "componentType" : 5123, "count" : 1848, "type" : "SCALAR", "max" : [1477], "min" : [0]}, {"bufferView" : 1, "byteOffset" : 0, "componentType" : 5126, "count" : 1478, "type" : "VEC3", "max" : [142.7480010986328, 142.49400329589844, 21.46299934387207], "min" : [0, 0, 10.731499671936035], "name" : "POSITION"}, {"bufferView" : 0, "byteOffset" : 3696, "componentType" : 5123, "count" : 930, "type" : "SCALAR", "max" : [796], "min" : [0]}, {"bufferView" : 2, "byteOffset" : 0, "componentType" : 5126, "count" : 797, "type" : "VEC3", "max" : [142.7480010986328, 142.49400329589844, 10.731499671936035], "min" : [0, 0, 10.731499671936035], "name" : "POSITION"}], "asset" : {"generator" : "Aspose.3D 22.7", "version" : "2.0"}, "buffers" : [{"uri" : "data:application/octet-stream;base64,", "byteLength" : 38904}], "bufferViews" : [{"buffer" : 0, "byteOffset" : 0, "byteLength" : 5556, "target" : 34963}, {"buffer" : 0, "byteOffset" : 5560, "byteLength" : 22176, "byteStride" : 12, "target" : 34962}, {"buffer" : 0, "byteOffset" : 27740, "byteLength" : 11160, "byteStride" : 12, "target" : 34962}], "images" : [{"uri" : "data:image/png;base64,"}], "materials" : [{"name" : "", "pbrMetallicRoughness" : {"baseColorFactor" : [0.8, 0.8, 0.8, 1], "baseColorTexture" : {"index" : 0, "texCoord" : 0}, "metallicFactor" : 0, "roughnessFactor" : 0}, "emissiveFactor" : [0, 0, 0], "alphaMode" : "OPAQUE", "doubleSided" : false}], "meshes" : [{"primitives" : [{"attributes" : {"POSITION" : 1}, "indices" : 0, "material" : 0, "mode" : 4}], "name" : ""}, {"primitives" : [{"attributes" : {"POSITION" : 3}, "indices" : 2, "mode" : 4}], "name" : ""}], "nodes" : [{"mesh" : 0, "name" : ""}, {"mesh" : 1, "name" : ""}, {"children" : [0, 1]}, {"children" : [2]}], "samplers" : [{"magFilter" : 9729, "minFilter" : 9729, "wrapS" : 10497, "wrapT" : 10497}], "scene" : 0, "scenes" : [{"nodes" : [3]}], "textures" : [{"sampler" : 0, "source" : 0, "name" : ""}]}