{
    "asset" : {
        "generator" : "Khronos glTF Blender I/O v3.2.43",
        "version" : "2.0"
    },
    "scene" : 0,
    "scenes" : [
        {
            "name" : "Scene",
            "nodes" : [
                3,
                4,
                5,
                8,
                11
            ]
        }
    ],
    "nodes" : [
        {
            "mesh" : 0,
            "name" : "Mesh_0"
        },
        {
            "mesh" : 1,
            "name" : "Mesh_1"
        },
        {
            "children" : [
                0,
                1
            ],
            "name" : "Node_2"
        },
        {
            "children" : [
                2
            ],
            "name" : "Node_3"
        },
        {
            "mesh" : 2,
            "name" : "Logo_Symbole",
            "rotation" : [
                0.7071068286895752,
                0,
                0,
                0.7071067094802856
            ],
            "scale" : [
                0.009999999776482582,
                0.009999999776482582,
                0.009999999776482582
            ],
            "translation" : [
                0,
                -0.07229239493608475,
                0
            ]
        },
        {
            "mesh" : 3,
            "name" : "Logo_Platform",
            "rotation" : [
                0.7071068286895752,
                0,
                0,
                0.7071067094802856
            ],
            "scale" : [
                0.009999999776482582,
                0.009999999776482582,
                0.009999999776482582
            ],
            "translation" : [
                0,
                -0.207985982298851,
                0
            ]
        },
        {
            "mesh" : 4,
            "name" : "Mesh_0.001"
        },
        {
            "children" : [
                6
            ],
            "name" : "Node_2.001"
        },
        {
            "children" : [
                7
            ],
            "name" : "Node_3.001"
        },
        {
            "mesh" : 5,
            "name" : "Mesh_0.002"
        },
        {
            "children" : [
                9
            ],
            "name" : "Node_2.002"
        },
        {
            "children" : [
                10
            ],
            "name" : "Node_3.002"
        }
    ],
    "materials" : [
        {
            "emissiveFactor" : [
                0,
                0.2882890999317169,
                0.011237137950956821
            ],
            "name" : "Material.001",
            "pbrMetallicRoughness" : {
                "baseColorFactor" : [
                    0.800000011920929,
                    0.800000011920929,
                    0.800000011920929,
                    1
                ],
                "baseColorTexture" : {
                    "index" : 0
                },
                "metallicFactor" : 0,
                "roughnessFactor" : 0
            }
        },
        {
            "alphaMode" : "BLEND",
            "doubleSided" : true,
            "emissiveFactor" : [
                0.07755763828754425,
                1,
                0.05026501044631004
            ],
            "name" : "Material.002",
            "pbrMetallicRoughness" : {
                "baseColorFactor" : [
                    0.016715524718165398,
                    0.8000000715255737,
                    0.004618455655872822,
                    0.3419688940048218
                ],
                "metallicFactor" : 0.5,
                "roughnessFactor" : 0.5
            }
        },
        {
            "doubleSided" : true,
            "emissiveFactor" : [
                1,
                1,
                1
            ],
            "name" : "Mat.1",
            "pbrMetallicRoughness" : {
                "baseColorFactor" : [
                    0,
                    0,
                    0,
                    1
                ],
                "metallicFactor" : 0,
                "roughnessFactor" : 0.5
            }
        },
        {
            "doubleSided" : true,
            "emissiveFactor" : [
                1,
                1,
                1
            ],
            "name" : "Mat",
            "pbrMetallicRoughness" : {
                "baseColorFactor" : [
                    0,
                    0,
                    0,
                    1
                ],
                "metallicFactor" : 0,
                "roughnessFactor" : 0.5
            }
        },
        {
            "emissiveFactor" : [
                0,
                0.2882890999317169,
                0.011237137950956821
            ],
            "name" : "Material.003",
            "pbrMetallicRoughness" : {
                "baseColorFactor" : [
                    0.800000011920929,
                    0.800000011920929,
                    0.800000011920929,
                    1
                ],
                "baseColorTexture" : {
                    "index" : 1
                },
                "metallicFactor" : 0,
                "roughnessFactor" : 0
            }
        },
        {
            "alphaCutoff" : 0.5,
            "alphaMode" : "MASK",
            "emissiveFactor" : [
                0,
                0.2882890999317169,
                0.011237137950956821
            ],
            "name" : "Material.004",
            "pbrMetallicRoughness" : {
                "baseColorFactor" : [
                    0.800000011920929,
                    0.800000011920929,
                    0.800000011920929,
                    1
                ],
                "baseColorTexture" : {
                    "index" : 2
                },
                "metallicFactor" : 0,
                "roughnessFactor" : 0
            }
        }
    ],
    "meshes" : [
        {
            "name" : "Mesh_0",
            "primitives" : [
                {
                    "attributes" : {
                        "POSITION" : 0,
                        "NORMAL" : 1
                    },
                    "indices" : 2,
                    "material" : 0
                }
            ]
        },
        {
            "name" : "Mesh_1",
            "primitives" : [
                {
                    "attributes" : {
                        "POSITION" : 3,
                        "NORMAL" : 4
                    },
                    "indices" : 5,
                    "material" : 1
                }
            ]
        },
        {
            "name" : "ID11",
            "primitives" : [
                {
                    "attributes" : {
                        "POSITION" : 6,
                        "NORMAL" : 7,
                        "TEXCOORD_0" : 8
                    },
                    "indices" : 9,
                    "material" : 2
                }
            ]
        },
        {
            "name" : "ID20",
            "primitives" : [
                {
                    "attributes" : {
                        "POSITION" : 10,
                        "NORMAL" : 11,
                        "TEXCOORD_0" : 12
                    },
                    "indices" : 13,
                    "material" : 3
                }
            ]
        },
        {
            "name" : "Mesh_0.001",
            "primitives" : [
                {
                    "attributes" : {
                        "POSITION" : 14,
                        "NORMAL" : 15
                    },
                    "indices" : 2,
                    "material" : 4
                }
            ]
        },
        {
            "name" : "Mesh_0.002",
            "primitives" : [
                {
                    "attributes" : {
                        "POSITION" : 16,
                        "NORMAL" : 17
                    },
                    "indices" : 2,
                    "material" : 5
                }
            ]
        }
    ],
    "textures" : [
        {
            "sampler" : 0,
            "source" : 0
        },
        {
            "sampler" : 0,
            "source" : 0
        },
        {
            "sampler" : 0,
            "source" : 0
        }
    ],
    "images" : [
        {
            "bufferView" : 3,
            "mimeType" : "image/png",
            "name" : "Image_0"
        }
    ],
    "accessors" : [
        {
            "bufferView" : 0,
            "componentType" : 5126,
            "count" : 1766,
            "max" : [
                142.7480010986328,
                142.49400329589844,
                21.46299934387207
            ],
            "min" : [
                0,
                0,
                10.731499671936035
            ],
            "type" : "VEC3"
        },
        {
            "bufferView" : 1,
            "componentType" : 5126,
            "count" : 1766,
            "type" : "VEC3"
        },
        {
            "bufferView" : 2,
            "componentType" : 5123,
            "count" : 1848,
            "type" : "SCALAR"
        },
        {
            "bufferView" : 4,
            "componentType" : 5126,
            "count" : 920,
            "max" : [
                142.7480010986328,
                142.49400329589844,
                10.731499671936035
            ],
            "min" : [
                0,
                0,
                10.731499671936035
            ],
            "type" : "VEC3"
        },
        {
            "bufferView" : 5,
            "componentType" : 5126,
            "count" : 920,
            "type" : "VEC3"
        },
        {
            "bufferView" : 6,
            "componentType" : 5123,
            "count" : 930,
            "type" : "SCALAR"
        },
        {
            "bufferView" : 7,
            "componentType" : 5126,
            "count" : 2232,
            "max" : [
                180.82200622558594,
                119.47300720214844,
                -5.425250053405762
            ],
            "min" : [
                -169.92401123046875,
                -116.40400695800781,
                -8.457499504089355
            ],
            "type" : "VEC3"
        },
        {
            "bufferView" : 8,
            "componentType" : 5126,
            "count" : 2232,
            "type" : "VEC3"
        },
        {
            "bufferView" : 9,
            "componentType" : 5126,
            "count" : 2232,
            "type" : "VEC2"
        },
        {
            "bufferView" : 10,
            "componentType" : 5123,
            "count" : 2268,
            "type" : "SCALAR"
        },
        {
            "bufferView" : 11,
            "componentType" : 5126,
            "count" : 610,
            "max" : [
                250.416015625,
                250.416015625,
                21.397001266479492
            ],
            "min" : [
                -250.416015625,
                -250.416015625,
                -21.397001266479492
            ],
            "type" : "VEC3"
        },
        {
            "bufferView" : 12,
            "componentType" : 5126,
            "count" : 610,
            "type" : "VEC3"
        },
        {
            "bufferView" : 13,
            "componentType" : 5126,
            "count" : 610,
            "type" : "VEC2"
        },
        {
            "bufferView" : 14,
            "componentType" : 5123,
            "count" : 1188,
            "type" : "SCALAR"
        },
        {
            "bufferView" : 15,
            "componentType" : 5126,
            "count" : 1766,
            "max" : [
                142.7480010986328,
                142.49400329589844,
                21.46299934387207
            ],
            "min" : [
                0,
                0,
                10.731499671936035
            ],
            "type" : "VEC3"
        },
        {
            "bufferView" : 16,
            "componentType" : 5126,
            "count" : 1766,
            "type" : "VEC3"
        },
        {
            "bufferView" : 17,
            "componentType" : 5126,
            "count" : 1766,
            "max" : [
                142.7480010986328,
                142.49400329589844,
                21.46299934387207
            ],
            "min" : [
                0,
                0,
                10.731499671936035
            ],
            "type" : "VEC3"
        },
        {
            "bufferView" : 18,
            "componentType" : 5126,
            "count" : 1766,
            "type" : "VEC3"
        }
    ],
    "bufferViews" : [
        {
            "buffer" : 0,
            "byteLength" : 21192,
            "byteOffset" : 0
        },
        {
            "buffer" : 0,
            "byteLength" : 21192,
            "byteOffset" : 21192
        },
        {
            "buffer" : 0,
            "byteLength" : 3696,
            "byteOffset" : 42384
        },
        {
            "buffer" : 0,
            "byteLength" : 106015,
            "byteOffset" : 46080
        },
        {
            "buffer" : 0,
            "byteLength" : 11040,
            "byteOffset" : 152096
        },
        {
            "buffer" : 0,
            "byteLength" : 11040,
            "byteOffset" : 163136
        },
        {
            "buffer" : 0,
            "byteLength" : 1860,
            "byteOffset" : 174176
        },
        {
            "buffer" : 0,
            "byteLength" : 26784,
            "byteOffset" : 176036
        },
        {
            "buffer" : 0,
            "byteLength" : 26784,
            "byteOffset" : 202820
        },
        {
            "buffer" : 0,
            "byteLength" : 17856,
            "byteOffset" : 229604
        },
        {
            "buffer" : 0,
            "byteLength" : 4536,
            "byteOffset" : 247460
        },
        {
            "buffer" : 0,
            "byteLength" : 7320,
            "byteOffset" : 251996
        },
        {
            "buffer" : 0,
            "byteLength" : 7320,
            "byteOffset" : 259316
        },
        {
            "buffer" : 0,
            "byteLength" : 4880,
            "byteOffset" : 266636
        },
        {
            "buffer" : 0,
            "byteLength" : 2376,
            "byteOffset" : 271516
        },
        {
            "buffer" : 0,
            "byteLength" : 21192,
            "byteOffset" : 273892
        },
        {
            "buffer" : 0,
            "byteLength" : 21192,
            "byteOffset" : 295084
        },
        {
            "buffer" : 0,
            "byteLength" : 21192,
            "byteOffset" : 316276
        },
        {
            "buffer" : 0,
            "byteLength" : 21192,
            "byteOffset" : 337468
        }
    ],
    "samplers" : [
        {
            "magFilter" : 9729,
            "minFilter" : 9987
        }
    ],
    "buffers" : [
        {
            "byteLength" : 358660,
            "uri" : "data:application/octet-stream;base64,"
        }
    ]
}
